<svg xmlns="http://www.w3.org/2000/svg" xmlns:xlink="http://www.w3.org/1999/xlink" width="500" zoomAndPan="magnify" viewBox="0 0 375 374.999991" height="500" preserveAspectRatio="xMidYMid meet" version="1.0"><defs><g/><clipPath id="0ce1c618be"><rect x="0" width="40" y="0" height="22"/></clipPath><clipPath id="cd334adf1c"><path d="M 182.074219 170.65625 L 187.5 170.65625 L 187.5 176.402344 L 182.074219 176.402344 Z M 182.074219 170.65625 " clip-rule="nonzero"/></clipPath><clipPath id="e5069d03de"><path d="M 184.785156 170.65625 C 183.289062 170.65625 182.074219 171.941406 182.074219 173.527344 C 182.074219 175.109375 183.289062 176.394531 184.785156 176.394531 C 186.285156 176.394531 187.5 175.109375 187.5 173.527344 C 187.5 171.941406 186.285156 170.65625 184.785156 170.65625 Z M 184.785156 170.65625 " clip-rule="nonzero"/></clipPath><clipPath id="dcafbd46c1"><path d="M 0.0742188 0.65625 L 5.5 0.65625 L 5.5 6.398438 L 0.0742188 6.398438 Z M 0.0742188 0.65625 " clip-rule="nonzero"/></clipPath><clipPath id="6751bca4ce"><path d="M 2.785156 0.65625 C 1.289062 0.65625 0.0742188 1.941406 0.0742188 3.527344 C 0.0742188 5.109375 1.289062 6.394531 2.785156 6.394531 C 4.285156 6.394531 5.5 5.109375 5.5 3.527344 C 5.5 1.941406 4.285156 0.65625 2.785156 0.65625 Z M 2.785156 0.65625 " clip-rule="nonzero"/></clipPath><clipPath id="e15b908091"><rect x="0" width="6" y="0" height="7"/></clipPath></defs><g transform="matrix(1, 0, 0, 1, 143, 158)"><g clip-path="url(#0ce1c618be)"><g fill="#1b1b1b" fill-opacity="1"><g transform="translate(1.041737, 16.544858)"><g><path d="M 6.078125 -6.015625 C 5.617188 -6.046875 5.160156 -6.046875 4.703125 -6.015625 C 4.242188 -5.984375 3.847656 -5.816406 3.515625 -5.515625 C 3.253906 -5.273438 3.09375 -4.957031 3.03125 -4.5625 C 2.96875 -4.175781 2.957031 -3.769531 3 -3.34375 C 3.039062 -2.925781 3.066406 -2.554688 3.078125 -2.234375 C 3.085938 -2.078125 3.101562 -1.878906 3.125 -1.640625 C 3.15625 -1.398438 3.175781 -1.160156 3.1875 -0.921875 C 3.195312 -0.679688 3.160156 -0.488281 3.078125 -0.34375 C 2.972656 -0.144531 2.789062 -0.0351562 2.53125 -0.015625 C 2.269531 0.00390625 1.992188 -0.0078125 1.703125 -0.0625 C 1.421875 -0.113281 1.1875 -0.140625 1 -0.140625 C 0.65625 -0.140625 0.40625 -0.148438 0.25 -0.171875 C 0.09375 -0.191406 0.015625 -0.390625 0.015625 -0.765625 C 0.015625 -1.460938 0.015625 -2.160156 0.015625 -2.859375 C 0.015625 -3.566406 0.015625 -4.265625 0.015625 -4.953125 C 0.0351562 -6.421875 0.046875 -7.894531 0.046875 -9.375 C 0.046875 -10.863281 0.03125 -12.34375 0 -13.8125 C 0 -14.257812 0.0625 -14.546875 0.1875 -14.671875 C 0.289062 -14.773438 0.519531 -14.828125 0.875 -14.828125 C 0.90625 -14.828125 0.929688 -14.828125 0.953125 -14.828125 C 0.984375 -14.828125 1.003906 -14.828125 1.015625 -14.828125 C 1.242188 -14.816406 1.441406 -14.8125 1.609375 -14.8125 C 1.785156 -14.8125 1.945312 -14.8125 2.09375 -14.8125 C 2.238281 -14.8125 2.390625 -14.8125 2.546875 -14.8125 C 2.703125 -14.820312 2.835938 -14.800781 2.953125 -14.75 C 3.066406 -14.695312 3.125 -14.570312 3.125 -14.375 C 3.125 -13.78125 3.117188 -13.1875 3.109375 -12.59375 C 3.097656 -12 3.09375 -11.40625 3.09375 -10.8125 C 3.09375 -10.6875 3.078125 -10.488281 3.046875 -10.21875 C 3.023438 -9.957031 3.015625 -9.679688 3.015625 -9.390625 C 3.023438 -9.109375 3.070312 -8.867188 3.15625 -8.671875 C 3.238281 -8.472656 3.382812 -8.375 3.59375 -8.375 C 3.8125 -8.375 4.019531 -8.367188 4.21875 -8.359375 C 4.414062 -8.359375 4.613281 -8.359375 4.8125 -8.359375 C 5 -8.359375 5.1875 -8.359375 5.375 -8.359375 C 5.5625 -8.359375 5.75 -8.359375 5.9375 -8.359375 C 6.175781 -8.359375 6.492188 -8.335938 6.890625 -8.296875 C 7.296875 -8.265625 7.6875 -8.253906 8.0625 -8.265625 C 8.445312 -8.285156 8.738281 -8.375 8.9375 -8.53125 C 9.125 -8.675781 9.234375 -8.863281 9.265625 -9.09375 C 9.304688 -9.320312 9.320312 -9.554688 9.3125 -9.796875 C 9.300781 -10.046875 9.296875 -10.273438 9.296875 -10.484375 C 9.316406 -11.078125 9.320312 -11.671875 9.3125 -12.265625 C 9.300781 -12.859375 9.296875 -13.445312 9.296875 -14.03125 C 9.273438 -14.269531 9.296875 -14.457031 9.359375 -14.59375 C 9.429688 -14.738281 9.597656 -14.8125 9.859375 -14.8125 C 10.117188 -14.8125 10.378906 -14.8125 10.640625 -14.8125 C 10.898438 -14.8125 11.15625 -14.8125 11.40625 -14.8125 C 11.71875 -14.789062 11.9375 -14.78125 12.0625 -14.78125 C 12.195312 -14.78125 12.273438 -14.613281 12.296875 -14.28125 C 12.328125 -13.789062 12.328125 -13.289062 12.296875 -12.78125 C 12.273438 -12.269531 12.265625 -11.757812 12.265625 -11.25 C 12.265625 -10.632812 12.265625 -10.019531 12.265625 -9.40625 C 12.265625 -8.800781 12.265625 -8.179688 12.265625 -7.546875 C 12.265625 -6.816406 12.285156 -6.085938 12.328125 -5.359375 C 12.367188 -4.640625 12.394531 -3.910156 12.40625 -3.171875 C 12.40625 -3.054688 12.410156 -2.84375 12.421875 -2.53125 C 12.441406 -2.21875 12.441406 -1.875 12.421875 -1.5 C 12.410156 -1.132812 12.363281 -0.816406 12.28125 -0.546875 C 12.195312 -0.285156 12.050781 -0.148438 11.84375 -0.140625 C 11.476562 -0.128906 11.109375 -0.125 10.734375 -0.125 C 10.359375 -0.132812 9.984375 -0.140625 9.609375 -0.140625 C 9.398438 -0.140625 9.273438 -0.25 9.234375 -0.46875 C 9.203125 -0.695312 9.207031 -0.945312 9.25 -1.21875 C 9.300781 -1.5 9.328125 -1.707031 9.328125 -1.84375 C 9.359375 -2.300781 9.375 -2.769531 9.375 -3.25 C 9.375 -3.738281 9.335938 -4.222656 9.265625 -4.703125 C 9.210938 -5.054688 9.078125 -5.328125 8.859375 -5.515625 C 8.640625 -5.710938 8.375 -5.84375 8.0625 -5.90625 C 7.75 -5.976562 7.429688 -6 7.109375 -5.96875 C 6.953125 -5.96875 6.785156 -5.972656 6.609375 -5.984375 C 6.441406 -5.992188 6.265625 -6.003906 6.078125 -6.015625 Z M 6.078125 -6.015625 "/></g></g></g><g fill="#1b1b1b" fill-opacity="1"><g transform="translate(14.745231, 16.544858)"><g><path d="M 7.828125 -0.140625 C 7.191406 -0.0976562 6.550781 -0.0625 5.90625 -0.03125 C 5.269531 -0.0078125 4.632812 0 4 0 C 2.90625 0 2.003906 -0.378906 1.296875 -1.140625 C 0.585938 -1.898438 0.1875 -2.90625 0.09375 -4.15625 C 0.0195312 -5.289062 -0.00390625 -6.429688 0.015625 -7.578125 C 0.046875 -8.722656 0.0664062 -9.859375 0.078125 -10.984375 C 0.078125 -11.160156 0.171875 -11.285156 0.359375 -11.359375 C 0.546875 -11.429688 0.773438 -11.476562 1.046875 -11.5 C 1.316406 -11.519531 1.578125 -11.519531 1.828125 -11.5 C 2.078125 -11.476562 2.257812 -11.46875 2.375 -11.46875 C 2.644531 -11.46875 2.835938 -11.375 2.953125 -11.1875 C 3.066406 -11 3.128906 -10.769531 3.140625 -10.5 C 3.160156 -10.226562 3.160156 -9.953125 3.140625 -9.671875 C 3.128906 -9.398438 3.125 -9.1875 3.125 -9.03125 C 3.101562 -8.257812 3.078125 -7.488281 3.046875 -6.71875 C 3.015625 -5.957031 3.046875 -5.195312 3.140625 -4.4375 C 3.203125 -3.894531 3.398438 -3.4375 3.734375 -3.0625 C 4.078125 -2.695312 4.535156 -2.492188 5.109375 -2.453125 C 5.140625 -2.453125 5.164062 -2.453125 5.1875 -2.453125 C 5.21875 -2.453125 5.25 -2.453125 5.28125 -2.453125 C 5.882812 -2.453125 6.40625 -2.671875 6.84375 -3.109375 C 7.289062 -3.554688 7.519531 -4.097656 7.53125 -4.734375 C 7.5625 -5.640625 7.582031 -6.554688 7.59375 -7.484375 C 7.601562 -8.410156 7.597656 -9.375 7.578125 -10.375 C 7.554688 -10.84375 7.613281 -11.140625 7.75 -11.265625 C 7.882812 -11.398438 8.101562 -11.492188 8.40625 -11.546875 C 8.707031 -11.597656 9.019531 -11.609375 9.34375 -11.578125 C 9.664062 -11.546875 9.941406 -11.460938 10.171875 -11.328125 C 10.410156 -11.191406 10.53125 -11.003906 10.53125 -10.765625 C 10.53125 -9.878906 10.515625 -8.988281 10.484375 -8.09375 C 10.460938 -7.195312 10.4375 -6.304688 10.40625 -5.421875 C 10.394531 -4.785156 10.398438 -4.160156 10.421875 -3.546875 C 10.441406 -2.941406 10.5 -2.328125 10.59375 -1.703125 C 10.675781 -1.222656 10.632812 -0.867188 10.46875 -0.640625 C 10.3125 -0.421875 10.085938 -0.28125 9.796875 -0.21875 C 9.503906 -0.164062 9.179688 -0.144531 8.828125 -0.15625 C 8.472656 -0.175781 8.140625 -0.171875 7.828125 -0.140625 Z M 7.828125 -0.140625 "/></g></g></g><g fill="#1b1b1b" fill-opacity="1"><g transform="translate(26.630864, 16.544858)"><g><path d="M 3.03125 4.25 C 2.695312 4.25 2.363281 4.210938 2.03125 4.140625 C 1.695312 4.066406 1.378906 3.957031 1.078125 3.8125 C 0.773438 3.664062 0.546875 3.472656 0.390625 3.234375 C 0.234375 3.003906 0.25 2.722656 0.4375 2.390625 C 0.613281 2.085938 0.769531 1.835938 0.90625 1.640625 C 1.050781 1.453125 1.21875 1.332031 1.40625 1.28125 C 1.601562 1.226562 1.867188 1.273438 2.203125 1.421875 C 2.460938 1.523438 2.734375 1.539062 3.015625 1.46875 C 3.296875 1.394531 3.523438 1.253906 3.703125 1.046875 C 3.910156 0.796875 4.003906 0.554688 3.984375 0.328125 C 3.960938 0.109375 3.953125 -0.140625 3.953125 -0.421875 C 3.953125 -0.742188 3.867188 -1.078125 3.703125 -1.421875 C 3.535156 -1.773438 3.398438 -2.097656 3.296875 -2.390625 C 3.160156 -2.765625 3.019531 -3.140625 2.875 -3.515625 C 2.726562 -3.890625 2.582031 -4.265625 2.4375 -4.640625 C 2.144531 -5.410156 1.851562 -6.175781 1.5625 -6.9375 C 1.28125 -7.707031 0.992188 -8.476562 0.703125 -9.25 C 0.609375 -9.53125 0.484375 -9.800781 0.328125 -10.0625 C 0.171875 -10.332031 0.0664062 -10.613281 0.015625 -10.90625 C -0.0351562 -11.1875 0.03125 -11.367188 0.21875 -11.453125 C 0.40625 -11.546875 0.632812 -11.585938 0.90625 -11.578125 C 1.175781 -11.578125 1.40625 -11.578125 1.59375 -11.578125 C 1.769531 -11.578125 1.941406 -11.566406 2.109375 -11.546875 C 2.285156 -11.523438 2.457031 -11.472656 2.625 -11.390625 C 2.894531 -11.253906 3.117188 -10.992188 3.296875 -10.609375 C 3.484375 -10.234375 3.640625 -9.832031 3.765625 -9.40625 C 3.890625 -8.976562 4 -8.628906 4.09375 -8.359375 C 4.28125 -7.898438 4.46875 -7.441406 4.65625 -6.984375 C 4.84375 -6.523438 5.066406 -6.082031 5.328125 -5.65625 C 5.554688 -5.289062 5.785156 -5.148438 6.015625 -5.234375 C 6.242188 -5.328125 6.425781 -5.539062 6.5625 -5.875 C 6.882812 -6.695312 7.207031 -7.519531 7.53125 -8.34375 C 7.863281 -9.175781 8.195312 -10 8.53125 -10.8125 C 8.5625 -10.914062 8.597656 -11.007812 8.640625 -11.09375 C 8.691406 -11.1875 8.753906 -11.265625 8.828125 -11.328125 C 8.941406 -11.398438 9.050781 -11.441406 9.15625 -11.453125 C 9.269531 -11.472656 9.390625 -11.484375 9.515625 -11.484375 C 9.796875 -11.503906 10.070312 -11.515625 10.34375 -11.515625 C 10.613281 -11.523438 10.882812 -11.523438 11.15625 -11.515625 C 11.226562 -11.515625 11.300781 -11.507812 11.375 -11.5 C 11.445312 -11.488281 11.515625 -11.457031 11.578125 -11.40625 C 11.679688 -11.332031 11.722656 -11.222656 11.703125 -11.078125 C 11.679688 -10.929688 11.644531 -10.796875 11.59375 -10.671875 C 10.851562 -8.828125 10.109375 -6.988281 9.359375 -5.15625 C 8.617188 -3.332031 7.894531 -1.5 7.1875 0.34375 C 7.03125 0.769531 6.867188 1.203125 6.703125 1.640625 C 6.546875 2.085938 6.332031 2.492188 6.0625 2.859375 C 5.695312 3.304688 5.25 3.644531 4.71875 3.875 C 4.1875 4.113281 3.625 4.238281 3.03125 4.25 Z M 3.03125 4.25 "/></g></g></g></g></g><g clip-path="url(#cd334adf1c)"><g clip-path="url(#e5069d03de)"><g transform="matrix(1, 0, 0, 1, 182, 170)"><g clip-path="url(#e15b908091)"><g clip-path="url(#dcafbd46c1)"><g clip-path="url(#6751bca4ce)"><path fill="#fdbd38" d="M 0.0742188 0.65625 L 5.5 0.65625 L 5.5 6.402344 L 0.0742188 6.402344 Z M 0.0742188 0.65625 " fill-opacity="1" fill-rule="nonzero"/></g></g></g></g></g></g></svg>